<?xml version="1.0" encoding="utf-8" ?>
<svg baseProfile="full" height="1024" version="1.1" width="1024" xmlns="http://www.w3.org/2000/svg" xmlns:ev="http://www.w3.org/2001/xml-events" xmlns:xlink="http://www.w3.org/1999/xlink"><defs /><polygon fill="black" points="497,662 493,666 493,777 494,778 494,779 495,780 496,780 497,781 509,781 510,782 511,781 512,782 513,781 514,781 515,782 516,781 517,782 518,782 519,781 530,781 531,780 532,780 533,779 533,778 534,777 534,667 533,666 533,665 531,663 530,663 529,662" /><polygon fill="black" points="625,649 624,650 620,650 619,651 617,651 616,652 614,652 613,653 612,653 611,654 610,654 609,655 608,655 607,656 606,656 602,660 601,660 598,663 598,664 597,665 596,665 595,664 596,663 596,659 595,658 595,656 594,655 593,655 592,654 561,654 558,657 558,658 557,659 557,681 558,682 557,683 557,686 558,687 557,688 557,689 558,690 557,691 557,720 558,721 557,722 557,727 558,728 557,729 558,730 557,731 557,734 558,735 557,736 557,743 558,744 557,745 558,746 558,747 557,748 557,750 558,751 557,752 557,755 558,756 557,757 557,766 558,767 558,768 557,769 558,770 558,771 557,772 557,776 558,777 558,779 559,780 560,780 561,781 578,781 579,782 580,781 593,781 594,780 595,780 596,779 596,702 597,701 597,698 598,697 598,696 599,695 599,694 606,687 607,687 608,686 609,686 610,685 613,685 614,684 622,684 623,685 625,685 626,686 628,686 630,688 631,688 636,693 636,694 637,695 637,696 638,697 638,698 639,699 639,702 640,703 640,777 641,778 641,779 643,781 646,781 647,782 672,782 673,781 675,781 676,780 677,780 678,779 678,778 679,777 679,691 678,690 678,687 677,686 677,683 676,682 676,680 675,679 675,678 674,677 674,676 673,675 673,674 672,673 672,672 671,671 671,670 669,668 669,667 660,658 659,658 657,656 656,656 655,655 654,655 653,654 652,654 651,653 650,653 649,652 647,652 646,651 643,651 642,650 637,650 636,649" /><polygon fill="black" points="373,649 372,650 367,650 366,651 363,651 362,652 360,652 359,653 357,653 356,654 355,654 354,655 353,655 352,656 351,656 350,657 349,657 347,659 346,659 345,660 344,660 341,663 340,663 330,673 330,674 327,677 327,678 325,680 325,681 323,683 323,684 322,685 322,686 321,687 321,688 320,689 320,691 319,692 319,694 318,695 318,697 317,698 317,701 316,702 316,707 315,708 315,727 316,728 316,732 317,733 317,737 318,738 318,740 319,741 319,743 320,744 320,745 321,746 321,747 322,748 322,749 323,750 323,751 324,752 324,753 325,754 325,755 328,758 328,759 332,763 332,764 338,770 339,770 343,774 344,774 346,776 347,776 348,777 349,777 351,779 352,779 353,780 354,780 355,781 357,781 358,782 359,782 360,783 363,783 364,784 366,784 367,785 371,785 372,786 381,786 382,787 387,787 388,786 395,786 396,785 400,785 401,784 403,784 404,783 406,783 407,782 409,782 410,781 411,781 412,780 413,780 415,778 416,778 417,777 418,777 423,772 424,773 424,830 426,832 427,832 428,833 461,833 462,832 463,832 465,830 465,657 464,656 464,655 463,655 462,654 461,654 460,653 429,653 428,654 427,654 426,655 426,656 425,657 425,664 424,665 423,664 423,663 422,663 419,660 418,660 416,658 415,658 413,656 412,656 411,655 410,655 409,654 407,654 406,653 405,653 404,652 402,652 401,651 398,651 397,650 393,650 392,649" /><polygon fill="black" points="509,607 508,608 506,608 505,609 504,609 503,610 502,610 500,612 499,612 497,614 497,615 494,618 494,619 493,620 493,622 492,623 492,635 493,636 493,637 494,638 494,639 495,640 495,641 501,647 502,647 504,649 506,649 507,650 510,650 511,651 518,651 519,650 522,650 523,649 524,649 525,648 526,648 527,647 528,647 533,642 533,641 535,639 535,637 536,636 536,635 537,634 537,624 536,623 536,621 535,620 535,619 534,618 534,617 531,614 531,613 530,612 529,612 527,610 526,610 525,609 524,609 523,608 521,608 520,607" /><polygon fill="black" points="187,601 186,602 185,602 183,604 183,605 182,606 182,637 186,641 232,641 233,642 233,779 235,781 236,781 237,782 269,782 270,781 271,781 272,780 272,779 273,778 273,642 274,641 318,641 319,640 320,640 322,638 322,637 323,636 323,606 322,605 322,604 320,602 319,602 318,601" /><polygon fill="black" points="795,597 794,598 793,598 792,599 792,600 791,601 791,661 790,662 787,659 786,659 784,657 783,657 781,655 780,655 779,654 777,654 776,653 775,653 774,652 772,652 771,651 768,651 767,650 746,650 745,651 741,651 740,652 737,652 736,653 734,653 733,654 731,654 730,655 729,655 728,656 727,656 726,657 725,657 723,659 722,659 720,661 719,661 716,664 715,664 709,670 709,671 705,675 705,676 703,678 703,679 702,680 702,681 700,683 700,684 699,685 699,687 698,688 698,689 697,690 697,692 696,693 696,695 695,696 695,698 694,699 694,703 693,704 693,730 694,731 694,735 695,736 695,739 696,740 696,742 697,743 697,745 698,746 698,747 699,748 699,749 700,750 700,751 701,752 701,753 702,754 702,755 704,757 704,758 706,760 706,761 711,766 711,767 715,771 716,771 720,775 721,775 723,777 724,777 726,779 727,779 728,780 729,780 730,781 732,781 733,782 734,782 735,783 737,783 738,784 741,784 742,785 746,785 747,786 763,786 764,785 769,785 770,784 772,784 773,783 775,783 776,782 777,782 778,781 780,781 782,779 783,779 784,778 785,778 788,775 789,775 793,771 794,772 794,776 795,777 795,779 797,781 798,781 799,782 827,782 828,781 829,781 831,779 831,778 832,777 832,602 831,601 831,600 829,598 828,598 827,597" /><polygon fill="black" points="490,142 489,143 482,143 481,144 475,144 474,145 470,145 469,146 466,146 465,147 461,147 460,148 457,148 456,149 454,149 453,150 450,150 449,151 447,151 446,152 444,152 443,153 441,153 440,154 438,154 437,155 435,155 434,156 432,156 431,157 430,157 429,158 428,158 427,159 425,159 424,160 423,160 422,161 421,161 420,162 419,162 418,163 417,163 416,164 415,164 414,165 412,165 411,166 410,166 409,167 408,167 406,169 405,169 404,170 403,170 402,171 401,171 399,173 398,173 397,174 396,174 394,176 393,176 391,178 390,178 387,181 386,181 383,184 382,184 378,188 377,188 366,199 365,199 362,202 362,203 352,213 352,214 347,219 347,220 344,223 344,224 341,227 341,228 338,231 338,232 336,234 336,235 334,237 334,238 332,240 332,241 331,242 331,243 329,245 329,246 328,247 328,248 326,250 326,251 325,252 325,253 324,254 324,255 323,256 323,257 322,258 322,259 321,260 321,261 320,262 320,263 319,264 319,266 318,267 318,268 317,269 317,270 316,271 316,273 315,274 315,275 314,276 314,278 313,279 313,281 312,282 312,284 311,285 311,287 310,288 310,290 309,291 309,294 308,295 308,297 307,298 307,301 306,302 306,306 305,307 305,311 304,312 304,317 303,318 303,326 302,327 302,342 301,343 301,344 302,345 301,346 301,359 302,360 302,372 303,373 303,381 304,382 304,387 305,388 305,393 306,394 306,398 307,399 307,402 308,403 308,406 309,407 309,409 310,410 310,413 311,414 311,416 312,417 312,419 313,420 313,422 314,423 314,425 315,426 315,427 316,428 316,430 317,431 317,432 318,433 318,434 319,435 319,437 320,438 320,439 321,440 321,441 322,442 322,443 323,444 323,445 324,446 324,447 325,448 325,449 326,450 326,451 327,452 327,453 329,455 329,456 330,457 330,458 332,460 332,461 333,462 333,463 335,465 335,466 337,468 337,469 340,472 340,473 343,476 343,477 346,480 346,481 351,486 351,487 373,509 374,509 379,514 380,514 384,518 385,518 388,521 389,521 391,523 392,523 394,525 395,525 397,527 398,527 400,529 401,529 402,530 403,530 405,532 406,532 407,533 408,533 410,535 411,535 412,536 413,536 414,537 415,537 416,538 417,538 418,539 419,539 420,540 421,540 422,541 423,541 424,542 425,542 426,543 427,543 428,544 429,544 430,545 432,545 433,546 434,546 435,547 437,547 438,548 439,548 440,549 442,549 443,550 445,550 446,551 448,551 449,552 452,552 453,553 455,553 456,554 459,554 460,555 463,555 464,556 467,556 468,557 472,557 473,558 478,558 479,559 486,559 487,560 497,560 498,561 527,561 528,560 538,560 539,559 546,559 547,558 551,558 552,557 556,557 557,556 561,556 562,555 565,555 566,554 568,554 569,553 572,553 573,552 575,552 576,551 578,551 579,550 580,550 581,549 583,549 584,548 586,548 587,547 588,547 589,546 591,546 592,545 593,545 594,544 596,544 597,543 598,543 599,542 600,542 601,541 602,541 603,540 604,540 605,539 606,539 607,538 608,538 609,537 610,537 612,535 613,535 614,534 615,534 616,533 617,533 619,531 620,531 621,530 622,530 624,528 625,528 627,526 628,526 630,524 631,524 634,521 635,521 637,519 638,519 642,515 643,515 648,510 649,510 668,491 668,490 674,484 674,483 678,479 678,478 681,475 681,474 684,471 684,470 686,468 686,467 688,465 688,464 690,462 690,461 692,459 692,458 693,457 693,456 694,455 694,454 696,452 696,451 697,450 697,449 698,448 698,447 699,446 699,445 700,444 700,443 701,442 701,441 702,440 702,439 703,438 703,437 704,436 704,434 705,433 705,432 706,431 706,429 707,428 707,427 708,426 708,424 709,423 709,422 710,421 710,419 711,418 711,416 712,415 712,412 713,411 713,409 714,408 714,405 715,404 715,401 716,400 716,397 717,396 717,392 718,391 718,387 719,386 719,380 720,379 720,370 721,369 721,330 720,329 720,322 719,321 719,314 718,313 718,309 717,308 717,304 716,303 716,300 715,299 715,296 714,295 714,292 713,291 713,289 712,288 712,285 711,284 711,282 710,281 710,279 709,278 709,277 708,276 708,274 707,273 707,271 706,270 706,269 705,268 705,267 704,266 704,265 703,264 703,262 702,261 702,260 701,259 701,258 700,257 700,256 699,255 699,254 698,253 698,252 697,251 697,250 695,248 695,247 694,246 694,245 693,244 693,243 691,241 691,240 690,239 690,238 688,236 688,235 686,233 686,232 683,229 683,228 681,226 681,225 678,222 678,221 674,217 674,216 669,211 669,210 651,192 650,192 645,187 644,187 640,183 639,183 636,180 635,180 633,178 632,178 630,176 629,176 627,174 626,174 624,172 623,172 622,171 621,171 620,170 619,170 618,169 617,169 615,167 614,167 613,166 612,166 611,165 609,165 608,164 607,164 606,163 605,163 604,162 603,162 602,161 601,161 600,160 598,160 597,159 596,159 595,158 594,158 593,157 591,157 590,156 588,156 587,155 586,155 585,154 583,154 582,153 580,153 579,152 577,152 576,151 573,151 572,150 570,150 569,149 566,149 565,148 563,148 562,147 558,147 557,146 554,146 553,145 549,145 548,144 543,144 542,143 534,143 533,142" /></svg>